<svg width="696" height="757" fill="none" xmlns="http://www.w3.org/2000/svg"><mask id="a" maskUnits="userSpaceOnUse" x="0" y="0" width="696" height="757" fill="#000"><path fill="#fff" d="M0 0h696v757H0z"/><path d="M236 623a5208 5208 0 0 0-112-329c-21-55-36-89-46-102l-39-3c-11-34-17-62-17-85 11-27 26-47 48-60 21-14 46-21 77-21 46 0 81 20 105 61 15 25 27 57 38 95 10 39 20 85 30 138 20 103 32 188 37 256l10-2c8-17 18-52 30-105s23-108 31-164c9-57 13-99 13-128l-59-8a368 368 0 0 1-13-77V76c7-7 18-16 33-24a256 256 0 0 1 116-30c41 0 71 10 91 31 19 20 29 51 29 93 0 29-4 64-12 104a1010 1010 0 0 1-79 239c-21 46-43 91-67 133-23 42-44 74-63 96a156 156 0 0 1-69 17 205 205 0 0 1-100-27c-14-8-23-18-29-29l17-56Z"/><path d="M255 571a4457 4457 0 0 0-95-283c-17-47-30-76-38-87l-34-3c-9-29-14-53-14-73 9-22 23-39 41-51 19-12 41-18 66-18 40 1 59 24 79 58 13 22 28 47 36 80 9 32 24 69 33 115 16 88 26 161 29 219l9-1c7-15 16-45 26-90 11-45 20-92 28-140 8-49 21-98 21-122h-64c-3-13-2-19-4-29l-2-32v-11c5-6 15-13 28-20a219 219 0 0 1 99-25c35 0 61 9 78 27 16 17 24 44 24 80a864 864 0 0 1-80 293c-17 39-37 77-57 113s-38 63-54 82a134 134 0 0 1-59 14 176 176 0 0 1-87-23c-11-8-19-16-24-25l15-48Z"/><path d="M447 535c0-8 1-15 3-21s6-14 12-23l60-5-10-77c5-9 13-16 23-21 11-5 22-7 34-7 15 0 26 3 33 10l-9 90 78-6 3 17c0 16-7 37-20 62h-57v80a48 48 0 0 1-38 18l-15-1-16-5-3-92h-77l-1-19Zm-67 79h12v38h-12v-38Z"/><path d="M367 639v-12h38v12h-38Zm-99 0v-12h38v12h-38Z"/></mask><path d="M236 623a5208 5208 0 0 0-112-329c-21-55-36-89-46-102l-39-3c-11-34-17-62-17-85 11-27 26-47 48-60 21-14 46-21 77-21 46 0 81 20 105 61 15 25 27 57 38 95 10 39 20 85 30 138 20 103 32 188 37 256l10-2c8-17 18-52 30-105s23-108 31-164c9-57 13-99 13-128l-59-8a368 368 0 0 1-13-77V76c7-7 18-16 33-24a256 256 0 0 1 116-30c41 0 71 10 91 31 19 20 29 51 29 93 0 29-4 64-12 104a1010 1010 0 0 1-79 239c-21 46-43 91-67 133-23 42-44 74-63 96a156 156 0 0 1-69 17 205 205 0 0 1-100-27c-14-8-23-18-29-29l17-56Z" fill="#C3D4F7"/><path d="M255 571a4457 4457 0 0 0-95-283c-17-47-30-76-38-87l-34-3c-9-29-14-53-14-73 9-22 23-39 41-51 19-12 41-18 66-18 40 1 59 24 79 58 13 22 28 47 36 80 9 32 24 69 33 115 16 88 26 161 29 219l9-1c7-15 16-45 26-90 11-45 20-92 28-140 8-49 21-98 21-122h-64c-3-13-2-19-4-29l-2-32v-11c5-6 15-13 28-20a219 219 0 0 1 99-25c35 0 61 9 78 27 16 17 24 44 24 80a864 864 0 0 1-80 293c-17 39-37 77-57 113s-38 63-54 82a134 134 0 0 1-59 14 176 176 0 0 1-87-23c-11-8-19-16-24-25l15-48Z" fill="#D2DDF4"/><path d="M447 535c0-8 1-15 3-21s6-14 12-23l60-5-10-77c5-9 13-16 23-21 11-5 22-7 34-7 15 0 26 3 33 10l-9 90 78-6 3 17c0 16-7 37-20 62h-57v80a48 48 0 0 1-38 18l-15-1-16-5-3-92h-77l-1-19Z" fill="#5F43D3"/><path d="M380 614h12v38h-12v-38Z" fill="#223B70"/><path d="M367 639v-12h38v12h-38Zm-99 0v-12h38v12h-38Z" fill="#223B70"/><path d="M236 623a5208 5208 0 0 0-112-329c-21-55-36-89-46-102l-39-3c-11-34-17-62-17-85 11-27 26-47 48-60 21-14 46-21 77-21 46 0 81 20 105 61 15 25 27 57 38 95 10 39 20 85 30 138 20 103 32 188 37 256l10-2c8-17 18-52 30-105s23-108 31-164c9-57 13-99 13-128l-59-8a368 368 0 0 1-13-77V76c7-7 18-16 33-24a256 256 0 0 1 116-30c41 0 71 10 91 31 19 20 29 51 29 93 0 29-4 64-12 104a1010 1010 0 0 1-79 239c-21 46-43 91-67 133-23 42-44 74-63 96a156 156 0 0 1-69 17 205 205 0 0 1-100-27c-14-8-23-18-29-29l17-56Z" stroke="#2E4F96" stroke-width="43.4" mask="url(#a)"/><path d="M255 571a4457 4457 0 0 0-95-283c-17-47-30-76-38-87l-34-3c-9-29-14-53-14-73 9-22 23-39 41-51 19-12 41-18 66-18 40 1 59 24 79 58 13 22 28 47 36 80 9 32 24 69 33 115 16 88 26 161 29 219l9-1c7-15 16-45 26-90 11-45 20-92 28-140 8-49 21-98 21-122h-64c-3-13-2-19-4-29l-2-32v-11c5-6 15-13 28-20a219 219 0 0 1 99-25c35 0 61 9 78 27 16 17 24 44 24 80a864 864 0 0 1-80 293c-17 39-37 77-57 113s-38 63-54 82a134 134 0 0 1-59 14 176 176 0 0 1-87-23c-11-8-19-16-24-25l15-48Z" stroke="#2E4F96" stroke-width="43.4" mask="url(#a)"/><path d="M447 535c0-8 1-15 3-21s6-14 12-23l60-5-10-77c5-9 13-16 23-21 11-5 22-7 34-7 15 0 26 3 33 10l-9 90 78-6 3 17c0 16-7 37-20 62h-57v80a48 48 0 0 1-38 18l-15-1-16-5-3-92h-77l-1-19Zm-67 79h12v38h-12v-38Z" stroke="#2E4F96" stroke-width="43.4" mask="url(#a)"/><path d="M367 639v-12h38v12h-38Zm-99 0v-12h38v12h-38Z" stroke="#2E4F96" stroke-width="43.4" mask="url(#a)"/><path d="M462 480h-5l-3 5-13 24c-2 8-4 16-4 25l1 20 1 9h77l2 82 1 6 6 2c5 3 11 5 18 6l1-10-1 10 16 2c18 0 33-8 45-22l3-2v-75h53l3-5c13-26 20-48 20-66l-2-20-2-8-8 1-67 5 8-78v-5l-3-3c-10-9-24-13-39-13-14 0-27 3-38 9-12 5-22 13-28 24l-2 3 1 3 8 67-49 4Z" fill="#5F43D3" stroke="#2E4F96" stroke-width="19.2"/><path d="m575 444 1 2m8-52 2 4 2 6c2 3 2 6 3 10" stroke="#fff" stroke-opacity=".9" stroke-width="12.8" stroke-linecap="round"/></svg>