<svg width="696" height="757" viewBox="0 0 696 757" fill="none" xmlns="http://www.w3.org/2000/svg">
<mask id="path-1-outside-1_1_24" maskUnits="userSpaceOnUse" x="0" y="0" width="696" height="757" fill="black">
<rect fill="white" width="696" height="757"/>
<path d="M236.021 623.298C224.836 586.086 208.513 535.562 187.05 471.726C165.587 407.89 144.427 348.592 123.569 293.832C103.014 239.073 87.8991 205.037 78.2258 191.725L38.7771 188.548C27.5924 154.966 22 126.679 22 103.686C32.5801 77.3648 48.4503 57.3972 69.6106 43.7829C90.7709 29.866 116.465 22.9076 146.694 22.9076C193.247 22.9076 228.313 43.1778 251.891 83.7182C266.703 109.132 279.248 141.05 289.526 179.472C300.106 217.592 310.384 263.578 320.36 317.43C340.009 419.992 352.1 505.157 356.634 572.925L367.063 571.11C374.923 553.865 384.898 518.771 396.99 465.826C409.082 412.882 419.511 358.273 428.277 302.001C437.043 245.426 441.427 202.919 441.427 174.48L381.573 165.858C377.341 150.731 374.318 137.57 372.505 126.376C370.691 114.88 369.633 102.476 369.331 89.1639C369.331 87.9537 369.331 86.2898 369.331 84.172C369.633 82.0542 369.633 79.4826 369.331 76.4572C375.981 68.5912 387.015 60.4226 402.431 51.9515C417.848 43.4803 435.683 36.3707 455.936 30.6224C476.492 24.8741 497.048 22 517.604 22C559.017 22 589.397 32.2864 608.744 52.8591C628.09 73.1293 637.764 104.291 637.764 146.344C637.764 175.388 633.834 209.877 625.974 249.813C618.115 289.748 607.081 331.045 592.874 373.703C582.596 404.562 567.179 443.136 546.623 489.424C526.068 535.411 504.001 579.581 480.422 621.937C457.146 664.293 436.137 696.211 417.395 717.691C408.628 723.439 398.048 727.675 385.654 730.398C373.26 733.423 360.866 734.936 348.473 734.936C331.242 734.936 313.558 732.515 295.421 727.675C277.586 723.137 261.716 716.632 247.81 708.161C234.207 699.69 224.685 690.009 219.244 679.117L236.021 623.298Z"/>
<path d="M254.785 570.855C245.405 538.945 231.694 495.615 213.655 440.864C195.615 386.112 177.81 335.247 160.241 288.268C142.931 241.29 130.17 212.079 121.959 200.635L88.2099 197.711C78.8105 168.908 74.1704 144.667 74.2896 124.986C83.482 102.512 97.1695 85.5033 115.352 73.9602C133.536 62.1581 155.565 56.3355 181.439 56.4925C221.286 56.7342 240.23 79.5374 260.201 114.36C272.748 136.189 287.813 160.852 296.411 193.792C305.27 226.476 320.3 263.342 328.56 309.488C344.846 397.376 354.754 470.335 358.284 528.365L367.22 526.866C374.037 512.146 382.757 482.159 393.381 436.904C404.006 391.65 413.215 344.962 421.01 296.842C428.807 248.462 442.201 198.916 442.348 174.574H378.158C374.614 161.605 375.677 155.819 374.183 146.228C372.69 136.378 371.849 125.756 371.659 114.36C371.665 113.324 371.674 111.9 371.685 110.087C371.955 108.276 371.968 106.075 371.725 103.484C377.458 96.7854 386.945 89.8509 400.184 82.6802C413.424 75.5095 428.727 69.5166 446.092 64.7016C463.716 59.8882 481.326 57.5348 498.92 57.6416C534.368 57.8566 560.318 66.8189 576.771 84.5284C593.225 101.979 601.343 128.702 601.125 164.697C600.975 189.556 597.432 219.057 590.498 253.198C583.564 287.34 573.906 322.63 561.524 359.069C552.566 385.429 539.171 418.366 521.336 457.88C503.503 497.134 484.386 534.827 463.985 570.959C443.842 607.092 425.694 634.303 409.541 652.591C402.008 657.466 392.93 661.036 382.307 663.302C371.683 665.828 361.067 667.058 350.458 666.994C335.71 666.904 320.586 664.741 305.087 660.503C289.845 656.526 276.294 650.876 264.436 643.553C252.837 636.232 244.736 627.896 240.136 618.545L254.785 570.855Z"/>
<path d="M446.737 535.486C446.737 526.96 447.884 519.745 450.177 513.843C452.471 507.94 456.485 500.234 462.219 490.724L521.934 486.297L511.859 409.07C517.429 400.052 525.293 393.165 535.45 388.41C545.771 383.491 557.075 381.032 569.362 381.032C583.943 381.032 594.838 384.393 602.046 391.116L592.708 480.886L671.345 474.737C672.82 481.132 673.557 486.789 673.557 491.707C673.557 507.94 667.168 528.681 654.389 553.932H596.886V634.11C586.401 646.244 573.868 652.31 559.287 652.31C554.864 652.31 549.867 651.736 544.297 650.589C538.727 649.441 533.238 647.801 527.832 645.67L524.637 554.178H447.72C447.065 548.275 446.737 542.044 446.737 535.486Z"/>
<path d="M379.804 613.845H391.874V652.282H379.804V613.845Z"/>
<path d="M366.636 639.104L366.654 627.024L405.058 627.079L405.041 639.159L366.636 639.104Z"/>
<path d="M267.882 639.104L267.9 627.024L306.304 627.079L306.287 639.159L267.882 639.104Z"/>
</mask>
<path d="M236.021 623.298C224.836 586.086 208.513 535.562 187.05 471.726C165.587 407.89 144.427 348.592 123.569 293.832C103.014 239.073 87.8991 205.037 78.2258 191.725L38.7771 188.548C27.5924 154.966 22 126.679 22 103.686C32.5801 77.3648 48.4503 57.3972 69.6106 43.7829C90.7709 29.866 116.465 22.9076 146.694 22.9076C193.247 22.9076 228.313 43.1778 251.891 83.7182C266.703 109.132 279.248 141.05 289.526 179.472C300.106 217.592 310.384 263.578 320.36 317.43C340.009 419.992 352.1 505.157 356.634 572.925L367.063 571.11C374.923 553.865 384.898 518.771 396.99 465.826C409.082 412.882 419.511 358.273 428.277 302.001C437.043 245.426 441.427 202.919 441.427 174.48L381.573 165.858C377.341 150.731 374.318 137.57 372.505 126.376C370.691 114.88 369.633 102.476 369.331 89.1639C369.331 87.9537 369.331 86.2898 369.331 84.172C369.633 82.0542 369.633 79.4826 369.331 76.4572C375.981 68.5912 387.015 60.4226 402.431 51.9515C417.848 43.4803 435.683 36.3707 455.936 30.6224C476.492 24.8741 497.048 22 517.604 22C559.017 22 589.397 32.2864 608.744 52.8591C628.09 73.1293 637.764 104.291 637.764 146.344C637.764 175.388 633.834 209.877 625.974 249.813C618.115 289.748 607.081 331.045 592.874 373.703C582.596 404.562 567.179 443.136 546.623 489.424C526.068 535.411 504.001 579.581 480.422 621.937C457.146 664.293 436.137 696.211 417.395 717.691C408.628 723.439 398.048 727.675 385.654 730.398C373.26 733.423 360.866 734.936 348.473 734.936C331.242 734.936 313.558 732.515 295.421 727.675C277.586 723.137 261.716 716.632 247.81 708.161C234.207 699.69 224.685 690.009 219.244 679.117L236.021 623.298Z" fill="#C3D4F7"/>
<path d="M254.785 570.855C245.405 538.945 231.694 495.615 213.655 440.864C195.615 386.112 177.81 335.247 160.241 288.268C142.931 241.29 130.17 212.079 121.959 200.635L88.2099 197.711C78.8105 168.908 74.1704 144.667 74.2896 124.986C83.482 102.512 97.1695 85.5033 115.352 73.9602C133.536 62.1581 155.565 56.3355 181.439 56.4925C221.286 56.7342 240.23 79.5374 260.201 114.36C272.748 136.189 287.813 160.852 296.411 193.792C305.27 226.476 320.3 263.342 328.56 309.488C344.846 397.376 354.754 470.335 358.284 528.365L367.22 526.866C374.037 512.146 382.757 482.159 393.381 436.904C404.006 391.65 413.215 344.962 421.01 296.842C428.807 248.462 442.201 198.916 442.348 174.574H378.158C374.614 161.605 375.677 155.819 374.183 146.228C372.69 136.378 371.849 125.756 371.659 114.36C371.665 113.324 371.674 111.9 371.685 110.087C371.955 108.276 371.968 106.075 371.725 103.484C377.458 96.7854 386.945 89.8509 400.184 82.6802C413.424 75.5095 428.727 69.5166 446.092 64.7016C463.716 59.8882 481.326 57.5348 498.92 57.6416C534.368 57.8566 560.318 66.8189 576.771 84.5284C593.225 101.979 601.343 128.702 601.125 164.697C600.975 189.556 597.432 219.057 590.498 253.198C583.564 287.34 573.906 322.63 561.524 359.069C552.566 385.429 539.171 418.366 521.336 457.88C503.503 497.134 484.386 534.827 463.985 570.959C443.842 607.092 425.694 634.303 409.541 652.591C402.008 657.466 392.93 661.036 382.307 663.302C371.683 665.828 361.067 667.058 350.458 666.994C335.71 666.904 320.586 664.741 305.087 660.503C289.845 656.526 276.294 650.876 264.436 643.553C252.837 636.232 244.736 627.896 240.136 618.545L254.785 570.855Z" fill="#D2DDF4"/>
<path d="M446.737 535.486C446.737 526.96 447.884 519.745 450.177 513.843C452.471 507.94 456.485 500.234 462.219 490.724L521.934 486.297L511.859 409.07C517.429 400.052 525.293 393.165 535.45 388.41C545.771 383.491 557.075 381.032 569.362 381.032C583.943 381.032 594.838 384.393 602.046 391.116L592.708 480.886L671.345 474.737C672.82 481.132 673.557 486.789 673.557 491.707C673.557 507.94 667.168 528.681 654.389 553.932H596.886V634.11C586.401 646.244 573.868 652.31 559.287 652.31C554.864 652.31 549.867 651.736 544.297 650.589C538.727 649.441 533.238 647.801 527.832 645.67L524.637 554.178H447.72C447.065 548.275 446.737 542.044 446.737 535.486Z" fill="#5F43D3"/>
<path d="M379.804 613.845H391.874V652.282H379.804V613.845Z" fill="#223B70"/>
<path d="M366.636 639.104L366.654 627.024L405.058 627.079L405.041 639.159L366.636 639.104Z" fill="#223B70"/>
<path d="M267.882 639.104L267.9 627.024L306.304 627.079L306.287 639.159L267.882 639.104Z" fill="#223B70"/>
<path d="M236.021 623.298C224.836 586.086 208.513 535.562 187.05 471.726C165.587 407.89 144.427 348.592 123.569 293.832C103.014 239.073 87.8991 205.037 78.2258 191.725L38.7771 188.548C27.5924 154.966 22 126.679 22 103.686C32.5801 77.3648 48.4503 57.3972 69.6106 43.7829C90.7709 29.866 116.465 22.9076 146.694 22.9076C193.247 22.9076 228.313 43.1778 251.891 83.7182C266.703 109.132 279.248 141.05 289.526 179.472C300.106 217.592 310.384 263.578 320.36 317.43C340.009 419.992 352.1 505.157 356.634 572.925L367.063 571.11C374.923 553.865 384.898 518.771 396.99 465.826C409.082 412.882 419.511 358.273 428.277 302.001C437.043 245.426 441.427 202.919 441.427 174.48L381.573 165.858C377.341 150.731 374.318 137.57 372.505 126.376C370.691 114.88 369.633 102.476 369.331 89.1639C369.331 87.9537 369.331 86.2898 369.331 84.172C369.633 82.0542 369.633 79.4826 369.331 76.4572C375.981 68.5912 387.015 60.4226 402.431 51.9515C417.848 43.4803 435.683 36.3707 455.936 30.6224C476.492 24.8741 497.048 22 517.604 22C559.017 22 589.397 32.2864 608.744 52.8591C628.09 73.1293 637.764 104.291 637.764 146.344C637.764 175.388 633.834 209.877 625.974 249.813C618.115 289.748 607.081 331.045 592.874 373.703C582.596 404.562 567.179 443.136 546.623 489.424C526.068 535.411 504.001 579.581 480.422 621.937C457.146 664.293 436.137 696.211 417.395 717.691C408.628 723.439 398.048 727.675 385.654 730.398C373.26 733.423 360.866 734.936 348.473 734.936C331.242 734.936 313.558 732.515 295.421 727.675C277.586 723.137 261.716 716.632 247.81 708.161C234.207 699.69 224.685 690.009 219.244 679.117L236.021 623.298Z" stroke="#2E4F96" stroke-width="43.4371" mask="url(#path-1-outside-1_1_24)"/>
<path d="M254.785 570.855C245.405 538.945 231.694 495.615 213.655 440.864C195.615 386.112 177.81 335.247 160.241 288.268C142.931 241.29 130.17 212.079 121.959 200.635L88.2099 197.711C78.8105 168.908 74.1704 144.667 74.2896 124.986C83.482 102.512 97.1695 85.5033 115.352 73.9602C133.536 62.1581 155.565 56.3355 181.439 56.4925C221.286 56.7342 240.23 79.5374 260.201 114.36C272.748 136.189 287.813 160.852 296.411 193.792C305.27 226.476 320.3 263.342 328.56 309.488C344.846 397.376 354.754 470.335 358.284 528.365L367.22 526.866C374.037 512.146 382.757 482.159 393.381 436.904C404.006 391.65 413.215 344.962 421.01 296.842C428.807 248.462 442.201 198.916 442.348 174.574H378.158C374.614 161.605 375.677 155.819 374.183 146.228C372.69 136.378 371.849 125.756 371.659 114.36C371.665 113.324 371.674 111.9 371.685 110.087C371.955 108.276 371.968 106.075 371.725 103.484C377.458 96.7854 386.945 89.8509 400.184 82.6802C413.424 75.5095 428.727 69.5166 446.092 64.7016C463.716 59.8882 481.326 57.5348 498.92 57.6416C534.368 57.8566 560.318 66.8189 576.771 84.5284C593.225 101.979 601.343 128.702 601.125 164.697C600.975 189.556 597.432 219.057 590.498 253.198C583.564 287.34 573.906 322.63 561.524 359.069C552.566 385.429 539.171 418.366 521.336 457.88C503.503 497.134 484.386 534.827 463.985 570.959C443.842 607.092 425.694 634.303 409.541 652.591C402.008 657.466 392.93 661.036 382.307 663.302C371.683 665.828 361.067 667.058 350.458 666.994C335.71 666.904 320.586 664.741 305.087 660.503C289.845 656.526 276.294 650.876 264.436 643.553C252.837 636.232 244.736 627.896 240.136 618.545L254.785 570.855Z" stroke="#2E4F96" stroke-width="43.4371" mask="url(#path-1-outside-1_1_24)"/>
<path d="M446.737 535.486C446.737 526.96 447.884 519.745 450.177 513.843C452.471 507.94 456.485 500.234 462.219 490.724L521.934 486.297L511.859 409.07C517.429 400.052 525.293 393.165 535.45 388.41C545.771 383.491 557.075 381.032 569.362 381.032C583.943 381.032 594.838 384.393 602.046 391.116L592.708 480.886L671.345 474.737C672.82 481.132 673.557 486.789 673.557 491.707C673.557 507.94 667.168 528.681 654.389 553.932H596.886V634.11C586.401 646.244 573.868 652.31 559.287 652.31C554.864 652.31 549.867 651.736 544.297 650.589C538.727 649.441 533.238 647.801 527.832 645.67L524.637 554.178H447.72C447.065 548.275 446.737 542.044 446.737 535.486Z" stroke="#2E4F96" stroke-width="43.4371" mask="url(#path-1-outside-1_1_24)"/>
<path d="M379.804 613.845H391.874V652.282H379.804V613.845Z" stroke="#2E4F96" stroke-width="43.4371" mask="url(#path-1-outside-1_1_24)"/>
<path d="M366.636 639.104L366.654 627.024L405.058 627.079L405.041 639.159L366.636 639.104Z" stroke="#2E4F96" stroke-width="43.4371" mask="url(#path-1-outside-1_1_24)"/>
<path d="M267.882 639.104L267.9 627.024L306.304 627.079L306.287 639.159L267.882 639.104Z" stroke="#2E4F96" stroke-width="43.4371" mask="url(#path-1-outside-1_1_24)"/>
<path d="M461.697 480.015L456.755 480.382L454.196 484.626C448.356 494.312 444.016 502.564 441.429 509.223C438.585 516.543 437.338 525.01 437.338 534.338C437.338 541.214 437.681 547.8 438.379 554.088L439.326 562.617H447.907H515.567L518.438 644.856L518.658 651.136L524.503 653.44C530.411 655.77 536.428 657.569 542.549 658.83L544.484 649.441L542.549 658.83C548.586 660.074 554.248 660.749 559.474 660.749C577.139 660.749 592.225 653.235 604.327 639.231L606.66 636.531V632.962V562.371H654.577H660.47L663.13 557.113C676.153 531.379 683.331 509.029 683.331 490.56C683.331 484.721 682.461 478.318 680.875 471.435L679.019 463.388L670.786 464.032L603.621 469.283L611.769 390.96L612.263 386.212L608.772 382.957C599.099 373.936 585.414 370.297 569.55 370.297C555.956 370.297 543.238 373.026 531.542 378.594C519.813 384.091 510.493 392.194 503.89 402.884L502.099 405.783L502.54 409.162L511.304 476.338L461.697 480.015Z" fill="#5F43D3" stroke="#2E4F96" stroke-width="19.1735"/>
<path d="M575.472 444.155C575.527 444.712 575.751 445.274 575.887 445.815" stroke="white" stroke-opacity="0.9" stroke-width="12.7824" stroke-linecap="round"/>
<path d="M583.573 394.207C583.798 395.439 584.928 396.503 585.527 397.569C586.593 399.464 587.65 401.475 588.39 403.521C589.662 407.041 589.919 410.201 590.525 413.835" stroke="white" stroke-opacity="0.9" stroke-width="12.7824" stroke-linecap="round"/>
</svg>
