<svg width="440" height="373" viewBox="0 0 440 373" fill="none" xmlns="http://www.w3.org/2000/svg">
<path d="M191.413 112.602C206.34 96.0589 231.852 94.749 248.395 109.676L338.256 190.76C354.799 205.687 356.109 231.198 341.182 247.741L260.098 337.602C245.171 354.145 219.66 355.455 203.117 340.528L113.256 259.445C96.7127 244.517 95.4028 219.006 110.33 202.463L191.413 112.602Z" fill="#F54242"/>
<path d="M32.6783 53.3538C69.9959 11.9963 133.775 8.72149 175.132 46.0392L234.453 99.5656C275.81 136.883 279.085 200.662 241.768 242.019C204.45 283.377 140.671 286.652 99.3136 249.334L39.9928 195.808C-1.36464 158.49 -4.63942 94.7112 32.6783 53.3538Z" fill="#F54242"/>
<path d="M264.345 41.784C300.949 1.21832 363.507 -1.9939 404.072 34.6094C444.638 71.2127 447.85 133.77 411.247 174.336L293.543 300.537C256.94 341.103 235.434 288.514 194.868 251.91C154.302 215.307 112.934 209.586 149.538 169.02L264.345 41.784Z" fill="#F54242"/>
<path d="M319.946 60.9683C329.701 60.9683 338.903 61.7362 347.866 66.1696C357.582 70.9757 368.711 76.174 373.753 86.2576" stroke="white" stroke-width="20.1726" stroke-linecap="round"/>
<path d="M371.6 136.837V140.065" stroke="white" stroke-width="20.1726" stroke-linecap="round"/>
</svg>
