<svg width="408" height="350" viewBox="0 0 408 350" fill="none" xmlns="http://www.w3.org/2000/svg">
<path d="M392.557 116.645C345.45 42.6204 276.523 0 203.925 0C167.627 0 132.348 10.6041 100.127 30.3849C67.9072 50.3696 38.9498 79.5309 15.2944 116.645C-5.09814 148.662 -5.09814 200.663 15.2944 232.679C62.4012 306.908 131.328 349.325 203.925 349.325C240.224 349.325 275.503 338.72 307.724 318.94C339.944 298.955 368.901 269.794 392.557 232.679C412.949 200.867 412.949 148.662 392.557 116.645ZM203.925 257.15C158.246 257.15 121.54 220.24 121.54 174.764C121.54 129.289 158.246 92.3782 203.925 92.3782C249.605 92.3782 286.311 129.289 286.311 174.764C286.311 220.24 249.605 257.15 203.925 257.15Z" fill="#E3E3E3"/>
<path d="M203.893 116.461C171.877 116.461 145.775 142.563 145.775 174.783C145.775 206.799 171.877 232.902 203.893 232.902C235.909 232.902 262.216 206.799 262.216 174.783C262.216 142.767 235.909 116.461 203.893 116.461Z" fill="#E3E3E3"/>
</svg>
