<svg width="408" height="408" viewBox="0 0 408 408" fill="none" xmlns="http://www.w3.org/2000/svg">
<path d="M392.809 146.236C386.897 136.86 380.579 128.095 374.056 119.942C366.515 110.362 352.246 109.547 343.686 118.108L282.537 179.256C287.021 192.709 287.836 208.2 283.76 224.302C276.626 253.042 253.389 276.279 224.649 283.413C208.546 287.49 193.055 286.674 179.603 282.19C179.603 282.19 150.455 311.338 129.461 332.332C119.269 342.524 122.531 360.461 136.187 365.76C157.997 374.117 180.622 378.398 203.858 378.398C240.14 378.398 275.403 367.798 307.608 348.027C340.424 327.644 369.98 297.681 393.828 259.565C413.192 228.787 412.172 177.014 392.809 146.236Z" fill="#E3E3E3"/>
<path d="M245.016 162.589L162.669 244.936C152.274 234.337 145.547 219.661 145.547 203.762C145.547 171.761 171.637 145.468 203.842 145.468C219.741 145.468 234.416 152.194 245.016 162.589Z" fill="#E3E3E3"/>
<path d="M331.223 76.3502L262.125 145.448C247.245 130.365 226.659 121.397 203.83 121.397C158.172 121.397 121.483 158.29 121.483 203.744C121.483 226.573 130.655 247.16 145.534 262.039L76.64 331.138H76.4361C53.811 312.793 33.0204 289.352 15.2872 261.632C-5.09574 229.63 -5.09574 177.654 15.2872 145.652C38.9315 108.555 67.8753 79.4076 100.08 59.4323C132.285 39.8646 167.548 29.0616 203.83 29.0616C249.284 29.0616 293.311 45.7757 331.223 76.3502Z" fill="#E3E3E3"/>
<path d="M262.087 203.712C262.087 235.713 235.997 262.007 203.792 262.007C202.569 262.007 201.549 262.007 200.326 261.6L261.679 200.247C262.087 201.47 262.087 202.489 262.087 203.712Z" fill="#E3E3E3"/>
<path d="M402.949 4.58617C396.834 -1.52872 386.846 -1.52872 380.731 4.58617L4.66576 380.856C-1.44913 386.971 -1.44913 396.958 4.66576 403.073C7.7232 405.927 11.596 407.557 15.6726 407.557C19.7492 407.557 23.6219 405.927 26.6794 402.869L402.949 26.5998C409.268 20.4849 409.268 10.7011 402.949 4.58617Z" fill="#E3E3E3"/>
</svg>
