<svg width="408" height="408" fill="none" xmlns="http://www.w3.org/2000/svg"><path d="m393 146-19-26c-7-10-22-10-30-2l-61 61a82 82 0 0 1-103 103l-51 50c-10 11-6 28 7 34a188 188 0 0 0 172-18c32-20 62-50 86-88 19-31 18-83-1-114ZM245 163l-82 82a58 58 0 0 1 82-82Z" fill="#E3E3E3"/><path d="m331 76-69 69a82 82 0 1 0-117 117l-68 69h-1c-22-18-43-42-61-69-20-32-20-84 0-116 24-37 53-67 85-87 32-19 68-30 104-30 45 0 89 17 127 47ZM262 204c0 32-26 58-58 58h-4l62-62v4Z" fill="#E3E3E3"/><path d="M403 5c-6-7-16-7-22 0L5 381c-6 6-6 16 0 22 3 3 7 5 11 5s8-2 11-5L403 27c6-7 6-16 0-22Z" fill="#E3E3E3"/></svg>
