<svg width="71" height="72" viewBox="0 0 71 72" fill="none" xmlns="http://www.w3.org/2000/svg">
<path d="M69 12.5C69 19.4036 63.4036 25 56.5 25C49.5964 25 44 19.4036 44 12.5C44 5.59644 49.5964 0 56.5 0C63.4036 0 69 5.59644 69 12.5Z" fill="#D2DDF4"/>
<path d="M25 34.5C25 41.4036 19.4036 47 12.5 47C5.59644 47 0 41.4036 0 34.5C0 27.5964 5.59644 22 12.5 22C19.4036 22 25 27.5964 25 34.5Z" fill="#D2DDF4"/>
<path d="M71 59.5C71 66.4036 65.4036 72 58.5 72C51.5964 72 46 66.4036 46 59.5C46 52.5964 51.5964 47 58.5 47C65.4036 47 71 52.5964 71 59.5Z" fill="#D2DDF4"/>
<path d="M13 28.863L55.5965 8.99998L58.5548 15.3441L15.9583 35.2072L13 28.863Z" fill="#D2DDF4"/>
<path d="M12.9583 34L55.5547 53.8631L52.5964 60.2072L9.99992 40.3442L12.9583 34Z" fill="#D2DDF4"/>
</svg>
