<svg width="658" height="658" viewBox="0 0 658 658" fill="none" xmlns="http://www.w3.org/2000/svg">
<mask id="path-1-outside-1_173_4" maskUnits="userSpaceOnUse" x="0" y="0" width="658" height="658" fill="black">
<rect fill="white" width="658" height="658"/>
<path d="M629 329C629 494.685 494.685 629 329 629C163.315 629 29 494.685 29 329C29 163.315 163.315 29 329 29C494.685 29 629 163.315 629 329Z"/>
<path d="M629 329C629 368.397 621.24 407.407 606.164 443.805C591.087 480.203 568.99 513.274 541.132 541.132C513.274 568.99 480.203 591.087 443.805 606.164C407.407 621.24 368.397 629 329 629V329H629Z"/>
<path d="M29 329C29 289.603 36.7598 250.593 51.8362 214.195C66.9127 177.797 89.0105 144.725 116.868 116.868C144.726 89.0102 177.798 66.9123 214.195 51.836C250.593 36.7596 289.603 28.9999 329 29V329H29Z"/>
<path d="M629 329C629 289.603 621.24 250.593 606.164 214.195C591.087 177.797 568.99 144.726 541.132 116.868C513.274 89.0104 480.203 66.9125 443.805 51.8361C407.407 36.7597 368.397 29 329 29V329H629Z"/>
<path d="M29 329C29 408.565 60.6071 484.871 116.868 541.132C173.129 597.393 249.435 629 329 629V329H29Z"/>
<path d="M31.1805 354.483C27.95 335.744 28.312 316.562 32.2471 297.958L179 329L31.1805 354.483Z"/>
<path d="M393.927 328.724C393.927 364.47 364.949 393.448 329.203 393.448C293.457 393.448 264.479 364.47 264.479 328.724C264.479 292.978 293.457 264 329.203 264C364.949 264 393.927 292.978 393.927 328.724Z"/>
<path d="M321.043 351.595L301.885 306.288H318.324L333.923 344.54H324.149L340.201 306.288H355.217L336.059 351.595H321.043Z"/>
<path d="M393.448 328.724C393.448 364.47 364.47 393.448 328.724 393.448C292.978 393.448 264 364.47 264 328.724C264 292.978 292.978 264 328.724 264C364.47 264 393.448 292.978 393.448 328.724Z"/>
<path d="M319.834 356L297 302H316.594L335.186 347.591H323.537L342.669 302H360.566L337.731 356H319.834Z"/>
</mask>
<path d="M629 329C629 494.685 494.685 629 329 629C163.315 629 29 494.685 29 329C29 163.315 163.315 29 329 29C494.685 29 629 163.315 629 329Z" fill="#D9D9D9"/>
<path d="M629 329C629 368.397 621.24 407.407 606.164 443.805C591.087 480.203 568.99 513.274 541.132 541.132C513.274 568.99 480.203 591.087 443.805 606.164C407.407 621.24 368.397 629 329 629V329H629Z" fill="#4287F5"/>
<path d="M29 329C29 289.603 36.7598 250.593 51.8362 214.195C66.9127 177.797 89.0105 144.725 116.868 116.868C144.726 89.0102 177.798 66.9123 214.195 51.836C250.593 36.7596 289.603 28.9999 329 29V329H29Z" fill="#FFC400"/>
<path d="M629 329C629 289.603 621.24 250.593 606.164 214.195C591.087 177.797 568.99 144.726 541.132 116.868C513.274 89.0104 480.203 66.9125 443.805 51.8361C407.407 36.7597 368.397 29 329 29V329H629Z" fill="#2ECC71"/>
<path d="M29 329C29 408.565 60.6071 484.871 116.868 541.132C173.129 597.393 249.435 629 329 629V329H29Z" fill="#5F43D3"/>
<path d="M31.1805 354.483C27.95 335.744 28.312 316.562 32.2471 297.958L179 329L31.1805 354.483Z" fill="#F54242"/>
<path d="M393.927 328.724C393.927 364.47 364.949 393.448 329.203 393.448C293.457 393.448 264.479 364.47 264.479 328.724C264.479 292.978 293.457 264 329.203 264C364.949 264 393.927 292.978 393.927 328.724Z" fill="#444444"/>
<path d="M321.043 351.595L301.885 306.288H318.324L333.923 344.54H324.149L340.201 306.288H355.217L336.059 351.595H321.043Z" fill="white"/>
<path d="M393.448 328.724C393.448 364.47 364.47 393.448 328.724 393.448C292.978 393.448 264 364.47 264 328.724C264 292.978 292.978 264 328.724 264C364.47 264 393.448 292.978 393.448 328.724Z" fill="#444444"/>
<path d="M319.834 356L297 302H316.594L335.186 347.591H323.537L342.669 302H360.566L337.731 356H319.834Z" fill="white"/>
<path d="M343.5 629V329H314.5V629H343.5ZM329 343.5H629V314.5H329V343.5ZM314.5 29V329H343.5V29H314.5ZM329 314.5H29V343.5H329V314.5ZM29 329L2.8216e-06 329L2.8216e-06 329L29 329ZM541.132 541.132L520.626 520.626L520.626 520.626L541.132 541.132ZM51.8362 214.195L78.6287 225.293L78.6287 225.293L51.8362 214.195ZM116.868 116.868L96.3621 96.3616L96.3621 96.3616L116.868 116.868ZM214.195 51.836L203.098 25.0434L203.098 25.0435L214.195 51.836ZM541.132 116.868L520.626 137.374L520.626 137.374L541.132 116.868ZM116.868 541.132L137.374 520.626L137.374 520.626L116.868 541.132ZM31.1805 354.483L2.60209 359.41L7.52887 387.989L36.1073 383.062L31.1805 354.483ZM32.2471 297.958L38.2485 269.586L9.87623 263.585L3.87486 291.957L32.2471 297.958ZM179 329L183.927 357.578L185.001 300.628L179 329ZM321.043 351.595L294.333 362.889L301.819 380.595H321.043V351.595ZM301.885 306.288V277.288H258.136L275.174 317.583L301.885 306.288ZM318.324 306.288L345.177 295.338L337.817 277.288H318.324V306.288ZM333.923 344.54V373.54H377.067L360.776 333.59L333.923 344.54ZM324.149 344.54L297.408 333.319L280.53 373.54H324.149V344.54ZM340.201 306.288V277.288H320.92L313.46 295.067L340.201 306.288ZM355.217 306.288L381.927 317.583L398.966 277.288H355.217V306.288ZM336.059 351.595V380.595H355.282L362.769 362.889L336.059 351.595ZM319.834 356L293.124 367.295L300.611 385H319.834V356ZM297 302V273H253.251L270.29 313.295L297 302ZM316.594 302L343.447 291.05L336.087 273H316.594V302ZM335.186 347.591V376.591H378.33L362.039 336.641L335.186 347.591ZM323.537 347.591L296.796 336.37L279.918 376.591H323.537V347.591ZM342.669 302V273H323.388L315.928 290.779L342.669 302ZM360.566 302L387.276 313.295L404.315 273H360.566V302ZM337.731 356V385H356.955L364.442 367.295L337.731 356ZM600 329C600 478.669 478.669 600 329 600V658C510.702 658 658 510.702 658 329H600ZM329 600C179.331 600 58 478.669 58 329H2.8216e-06C2.8216e-06 510.702 147.298 658 329 658V600ZM58 329C58 179.331 179.331 58 329 58V5.52973e-10C147.298 5.52973e-10 2.8216e-06 147.298 2.8216e-06 329H58ZM329 58C478.669 58 600 179.331 600 329H658C658 147.298 510.702 5.52973e-10 329 5.52973e-10V58ZM600 329C600 364.588 592.99 399.828 579.371 432.707L632.956 454.903C649.49 414.987 658 372.205 658 329H600ZM579.371 432.707C565.752 465.586 545.791 495.461 520.626 520.626L561.638 561.638C592.189 531.088 616.423 494.819 632.956 454.903L579.371 432.707ZM520.626 520.626C495.461 545.791 465.586 565.752 432.707 579.371L454.903 632.956C494.819 616.423 531.088 592.189 561.638 561.638L520.626 520.626ZM432.707 579.371C399.828 592.99 364.588 600 329 600V658C372.205 658 414.987 649.49 454.903 632.956L432.707 579.371ZM58 329C58 293.412 65.0096 258.172 78.6287 225.293L25.0437 203.097C8.50986 243.013 6.5987e-06 285.795 2.8216e-06 329L58 329ZM78.6287 225.293C92.2478 192.413 112.21 162.539 137.374 137.374L96.3621 96.3616C65.8116 126.912 41.5775 163.181 25.0437 203.097L78.6287 225.293ZM137.374 137.374C162.539 112.209 192.414 92.2475 225.293 78.6285L203.098 25.0435C163.181 41.5772 126.913 65.8112 96.3621 96.3616L137.374 137.374ZM225.293 78.6285C258.172 65.0095 293.412 57.9999 329 58L329 6.06384e-10C285.795 -8.29216e-05 243.014 8.50971 203.098 25.0434L225.293 78.6285ZM658 329C658 285.795 649.49 243.013 632.956 203.097L579.371 225.293C592.99 258.172 600 293.412 600 329H658ZM632.956 203.097C616.423 163.181 592.189 126.912 561.638 96.3619L520.626 137.374C545.791 162.539 565.752 192.414 579.371 225.293L632.956 203.097ZM561.638 96.3619C531.088 65.8114 494.819 41.5774 454.903 25.0436L432.707 78.6286C465.586 92.2477 495.461 112.209 520.626 137.374L561.638 96.3619ZM454.903 25.0436C414.987 8.50981 372.205 5.52973e-10 329 5.52973e-10V58C364.588 58 399.828 65.0096 432.707 78.6286L454.903 25.0436ZM2.8216e-06 329C1.04498e-05 416.256 34.6624 499.939 96.3619 561.638L137.374 520.626C86.5517 469.804 58 400.874 58 329L2.8216e-06 329ZM96.3619 561.638C158.061 623.338 241.744 658 329 658V600C257.126 600 188.196 571.448 137.374 520.626L96.3619 561.638ZM59.759 349.557C57.153 334.44 57.445 318.967 60.6193 303.96L3.87486 291.957C-0.821051 314.157 -1.25298 337.048 2.60209 359.41L59.759 349.557ZM26.2457 326.331L172.999 357.372L185.001 300.628L38.2485 269.586L26.2457 326.331ZM174.073 300.422L26.2537 325.905L36.1073 383.062L183.927 357.578L174.073 300.422ZM364.927 328.724C364.927 348.453 348.932 364.448 329.203 364.448V422.448C380.965 422.448 422.927 380.486 422.927 328.724H364.927ZM329.203 364.448C309.473 364.448 293.479 348.453 293.479 328.724H235.479C235.479 380.486 277.441 422.448 329.203 422.448V364.448ZM293.479 328.724C293.479 308.994 309.473 293 329.203 293V235C277.441 235 235.479 276.962 235.479 328.724H293.479ZM329.203 293C348.932 293 364.927 308.994 364.927 328.724H422.927C422.927 276.962 380.965 235 329.203 235V293ZM347.753 340.3L328.595 294.994L275.174 317.583L294.333 362.889L347.753 340.3ZM301.885 335.288H318.324V277.288H301.885V335.288ZM291.471 317.239L307.07 355.49L360.776 333.59L345.177 295.338L291.471 317.239ZM333.923 315.54H324.149V373.54H333.923V315.54ZM340.201 335.288H355.217V277.288H340.201V335.288ZM328.507 294.994L309.348 340.3L362.769 362.889L381.927 317.583L328.507 294.994ZM336.059 322.595H321.043V380.595H336.059V322.595ZM364.448 328.724C364.448 348.453 348.453 364.448 328.724 364.448V422.448C380.486 422.448 422.448 380.486 422.448 328.724H364.448ZM328.724 364.448C308.994 364.448 293 348.453 293 328.724H235C235 380.486 276.962 422.448 328.724 422.448V364.448ZM293 328.724C293 308.994 308.994 293 328.724 293V235C276.962 235 235 276.962 235 328.724H293ZM328.724 293C348.453 293 364.448 308.994 364.448 328.724H422.448C422.448 276.962 380.486 235 328.724 235V293ZM346.544 344.705L323.71 290.705L270.29 313.295L293.124 367.295L346.544 344.705ZM297 331H316.594V273H297V331ZM289.741 312.95L308.332 358.542L362.039 336.641L343.447 291.05L289.741 312.95ZM335.186 318.591H323.537V376.591H335.186V318.591ZM342.669 331H360.566V273H342.669V331ZM333.855 290.705L311.021 344.705L364.442 367.295L387.276 313.295L333.855 290.705ZM337.731 327H319.834V385H337.731V327ZM350.891 355.761L366.942 317.51L313.46 295.067L297.408 333.319L350.891 355.761ZM350.278 358.813L369.41 313.221L315.928 290.779L296.796 336.37L350.278 358.813Z" fill="#F8F8F8" mask="url(#path-1-outside-1_173_4)"/>
</svg>