<svg width="608" height="608" viewBox="0 0 608 608" fill="none" xmlns="http://www.w3.org/2000/svg">
<g filter="url(#filter0_d_154_47)">
<path d="M604 300C604 339.397 596.24 378.407 581.164 414.805C566.087 451.203 543.99 484.274 516.132 512.132C488.274 539.99 455.203 562.087 418.805 577.164C382.407 592.24 343.397 600 304 600V300H604Z" fill="#4287F5"/>
<path d="M4 300C4 260.603 11.7598 221.593 26.8362 185.195C41.9127 148.797 64.0105 115.725 91.8682 87.8678C119.726 60.0102 152.798 37.9123 189.195 22.836C225.593 7.7596 264.604 -7.56123e-05 304.001 5.52573e-10L304 300L4 300Z" fill="#FFC400"/>
<path d="M604 300C604 260.603 596.24 221.593 581.164 185.195C566.087 148.797 543.99 115.726 516.132 87.868C488.274 60.0104 455.203 37.9125 418.805 22.8361C382.407 7.7597 343.397 0 304 0V300H604Z" fill="#2ECC71"/>
<path d="M4 300C4.00001 379.565 35.6071 455.871 91.868 512.132C148.129 568.393 224.435 600 304 600V300L4 300Z" fill="#5F43D3"/>
</g>
<defs>
<filter id="filter0_d_154_47" x="0" y="0" width="608" height="608" filterUnits="userSpaceOnUse" color-interpolation-filters="sRGB">
<feFlood flood-opacity="0" result="BackgroundImageFix"/>
<feColorMatrix in="SourceAlpha" type="matrix" values="0 0 0 0 0 0 0 0 0 0 0 0 0 0 0 0 0 0 127 0" result="hardAlpha"/>
<feOffset dy="4"/>
<feGaussianBlur stdDeviation="2"/>
<feComposite in2="hardAlpha" operator="out"/>
<feColorMatrix type="matrix" values="0 0 0 0 0 0 0 0 0 0 0 0 0 0 0 0 0 0 0.25 0"/>
<feBlend mode="normal" in2="BackgroundImageFix" result="effect1_dropShadow_154_47"/>
<feBlend mode="normal" in="SourceGraphic" in2="effect1_dropShadow_154_47" result="shape"/>
</filter>
</defs>
</svg>
