<svg width="640" height="640" viewBox="0 0 640 640" fill="none" xmlns="http://www.w3.org/2000/svg">
<circle cx="320" cy="320" r="310" fill="#D9D9D9" stroke="white" stroke-width="20"/>
<g filter="url(#filter0_d_284_42)">
<path d="M620 320C620 359.397 612.24 398.407 597.164 434.805C582.087 471.203 559.99 504.274 532.132 532.132C504.274 559.99 471.203 582.087 434.805 597.164C398.407 612.24 359.397 620 320 620L320 320H620Z" fill="#4287F5"/>
<path d="M20 320C20 280.603 27.7598 241.593 42.8362 205.195C57.9127 168.797 80.0105 135.725 107.868 107.868C135.726 80.0102 168.798 57.9123 205.195 42.836C241.593 27.7596 280.604 19.9999 320.001 20L320 320L20 320Z" fill="#FFC400"/>
<path d="M620 320C620 280.603 612.24 241.593 597.164 205.195C582.087 168.797 559.99 135.726 532.132 107.868C504.274 80.0104 471.203 57.9125 434.805 42.8361C398.407 27.7597 359.397 20 320 20L320 320H620Z" fill="#2ECC71"/>
<path d="M20 320C20 399.565 51.6071 475.871 107.868 532.132C164.129 588.393 240.435 620 320 620L320 320L20 320Z" fill="#5F43D3"/>
</g>
<defs>
<filter id="filter0_d_284_42" x="16" y="20" width="608" height="608" filterUnits="userSpaceOnUse" color-interpolation-filters="sRGB">
<feFlood flood-opacity="0" result="BackgroundImageFix"/>
<feColorMatrix in="SourceAlpha" type="matrix" values="0 0 0 0 0 0 0 0 0 0 0 0 0 0 0 0 0 0 127 0" result="hardAlpha"/>
<feOffset dy="4"/>
<feGaussianBlur stdDeviation="2"/>
<feComposite in2="hardAlpha" operator="out"/>
<feColorMatrix type="matrix" values="0 0 0 0 0 0 0 0 0 0 0 0 0 0 0 0 0 0 0.25 0"/>
<feBlend mode="normal" in2="BackgroundImageFix" result="effect1_dropShadow_284_42"/>
<feBlend mode="normal" in="SourceGraphic" in2="effect1_dropShadow_284_42" result="shape"/>
</filter>
</defs>
</svg>
