<svg width="594" height="650" viewBox="0 0 594 650" fill="none" xmlns="http://www.w3.org/2000/svg">
<path d="M195.049 547.542C184.856 513.656 169.979 467.649 150.419 409.52C130.859 351.391 111.575 297.395 92.5656 247.53C73.8321 197.666 60.0574 166.673 51.2417 154.551L15.2899 151.659C5.09662 121.079 0 95.3205 0 74.3831C9.64225 50.4152 24.1056 32.2327 43.3901 19.8355C62.6746 7.16281 86.0915 0.826478 113.641 0.826478C156.067 0.826478 188.024 19.2845 209.512 56.2005C223.011 79.3419 234.444 108.406 243.811 143.394C253.453 178.106 262.82 219.981 271.911 269.019C289.818 362.411 300.838 439.962 304.971 501.672L314.475 500.019C321.638 484.316 330.729 452.359 341.749 404.148C352.769 355.937 362.273 306.21 370.262 254.969C378.252 203.451 382.246 164.745 382.246 138.848L327.699 130.997C323.842 117.222 321.087 105.238 319.434 95.045C317.781 84.5763 316.817 73.2811 316.541 61.1594C316.541 60.0574 316.541 58.5422 316.541 56.6138C316.817 54.6853 316.817 52.3436 316.541 49.5887C322.602 42.4259 332.658 34.9876 346.708 27.2738C360.758 19.56 377.012 13.0859 395.47 7.85155C414.203 2.61718 432.937 0 451.671 0C489.413 0 517.1 9.36676 534.732 28.1003C552.363 46.5583 561.179 74.9341 561.179 113.228C561.179 139.675 557.598 171.081 550.435 207.446C543.272 243.811 533.216 281.416 520.268 320.26C510.901 348.361 496.851 383.486 478.118 425.636C459.384 467.511 439.273 507.733 417.785 546.302C396.572 584.871 377.425 613.936 360.345 633.496C352.355 638.73 342.713 642.587 331.418 645.066C320.123 647.821 308.827 649.199 297.532 649.199C281.829 649.199 265.713 646.995 249.183 642.587C232.929 638.455 218.466 632.532 205.793 624.818C193.396 617.104 184.718 608.288 179.759 598.37L195.049 547.542Z" fill="#C3D4F7"/>
<path d="M212.15 499.787C203.601 470.73 191.106 431.273 174.665 381.417C158.225 331.561 141.999 285.243 125.987 242.463C110.211 199.685 98.5811 173.086 91.0983 162.664L60.3407 160.002C51.7745 133.775 47.5458 111.7 47.6544 93.7793C56.0319 73.3142 68.506 57.8261 85.0767 47.3149C101.649 36.5679 121.725 31.2659 145.306 31.4088C181.62 31.6289 198.885 52.3935 217.086 84.1029C228.52 103.981 242.25 126.438 250.086 156.434C258.159 186.196 271.857 219.766 279.384 261.787C294.227 341.817 303.257 408.254 306.474 461.096L314.618 459.73C320.83 446.326 328.778 419.02 338.46 377.811C348.142 336.603 356.536 294.089 363.64 250.271C370.746 206.217 382.952 161.1 383.086 138.934H324.586C321.356 127.124 322.325 121.855 320.964 113.122C319.603 104.153 318.836 94.4798 318.663 84.1029C318.669 83.1597 318.677 81.8628 318.687 80.2121C318.933 78.5629 318.945 76.5586 318.723 74.1991C323.948 68.0996 332.594 61.785 344.66 55.2554C356.726 48.7257 370.672 43.2686 386.498 38.8841C402.56 34.501 418.608 32.358 434.643 32.4552C466.949 32.651 490.598 40.812 505.593 56.9383C520.589 72.8287 527.987 97.1624 527.788 129.939C527.651 152.577 524.423 179.44 518.103 210.529C511.784 241.618 502.982 273.753 491.697 306.935C483.534 330.938 471.326 360.931 455.072 396.912C438.82 432.657 421.398 466.98 402.805 499.882C384.448 532.784 367.908 557.562 353.187 574.216C346.321 578.655 338.048 581.906 328.367 583.97C318.685 586.269 309.01 587.389 299.342 587.331C285.901 587.249 272.118 585.279 257.992 581.421C244.101 577.799 231.752 572.654 220.945 565.986C210.374 559.319 202.992 551.728 198.799 543.214L212.15 499.787Z" fill="#D2DDF4"/>
<path d="M387.086 467.58C387.086 459.816 388.131 453.247 390.221 447.872C392.312 442.497 395.97 435.479 401.195 426.819L455.617 422.788L446.435 352.465C451.511 344.254 458.678 337.983 467.935 333.653C477.341 329.174 487.643 326.934 498.841 326.934C512.129 326.934 522.058 329.995 528.628 336.116L520.117 417.861L591.784 412.262C593.128 418.085 593.799 423.236 593.799 427.715C593.799 442.497 587.977 461.384 576.331 484.377H523.924V557.387C514.369 568.436 502.947 573.96 489.659 573.96C485.628 573.96 481.074 573.438 475.997 572.392C470.921 571.347 465.919 569.854 460.992 567.913L458.081 484.601H387.982C387.385 479.226 387.086 473.552 387.086 467.58Z" fill="#223B70"/>
<path d="M326.086 538.934H337.086V573.934H326.086V538.934Z" fill="#223B70"/>
<path d="M314.086 561.934L314.102 550.934L349.102 550.985L349.086 561.985L314.086 561.934Z" fill="#223B70"/>
<path d="M224.086 561.934L224.102 550.934L259.102 550.985L259.086 561.985L224.086 561.934Z" fill="#223B70"/>
</svg>
